<?xml version="1.0"?>
<svg id="Layer_1" data-name="Layer 1" xmlns="http://www.w3.org/2000/svg" fill="#005855" viewBox="0 0 1945.41 300">
  <defs>

  </defs>
  <g>
    <path class="cls-1" d="M96.39,240.03V67.21h106.81v13.44h-93.01v65.65h78.61v13.44h-78.61v66.84h93.01v13.44h-106.81Z"></path>
    <path class="cls-1" d="M232,240.03l61.21-172.82h17.16l61.21,172.82h-14.64l-58.81-165.62h6.96l-58.44,165.62h-14.64ZM257.33,196.58v-13.08h88.81v13.08h-88.81Z"></path>
    <path class="cls-1" d="M459.07,243.63c-11.84,0-22.5-1.96-31.98-5.88-9.48-3.92-17.32-9.48-23.52-16.68-6.2-7.2-10.34-15.76-12.42-25.68l14.16-2.4c2.96,11.52,9.3,20.6,19.02,27.24,9.72,6.64,21.42,9.96,35.1,9.96,9.28,0,17.48-1.48,24.6-4.44,7.12-2.96,12.68-7.14,16.68-12.55,4-5.4,6-11.7,6-18.9,0-5.2-.94-9.56-2.82-13.08s-4.3-6.42-7.26-8.7c-2.96-2.28-6.12-4.12-9.48-5.52-3.36-1.4-6.52-2.54-9.48-3.42l-43.45-12.96c-5.76-1.68-10.9-3.78-15.42-6.3-4.52-2.52-8.32-5.44-11.4-8.76-3.08-3.32-5.44-7.1-7.08-11.34-1.64-4.24-2.46-8.96-2.46-14.16,0-9.28,2.48-17.4,7.44-24.37,4.96-6.96,11.78-12.38,20.46-16.26,8.68-3.88,18.66-5.82,29.94-5.82,11.36.08,21.56,2.18,30.6,6.3,9.04,4.13,16.46,9.94,22.26,17.46,5.8,7.52,9.54,16.44,11.22,26.76l-14.28,2.52c-1.12-7.92-3.98-14.84-8.58-20.76-4.6-5.92-10.46-10.52-17.58-13.8-7.12-3.28-15.04-4.92-23.76-4.92-8.4-.08-15.82,1.32-22.26,4.2-6.44,2.88-11.5,6.76-15.18,11.64s-5.52,10.4-5.52,16.56,1.74,11.5,5.22,15.3c3.48,3.8,7.76,6.78,12.84,8.94,5.08,2.16,9.94,3.92,14.58,5.28l34.81,10.32c3.28.96,7.2,2.33,11.76,4.08,4.56,1.76,9.04,4.26,13.44,7.5,4.4,3.24,8.06,7.52,10.98,12.84,2.92,5.32,4.38,11.98,4.38,19.98s-1.48,14.72-4.44,20.88c-2.96,6.16-7.2,11.39-12.72,15.66-5.52,4.28-12.04,7.56-19.56,9.84-7.52,2.29-15.8,3.42-24.84,3.42Z"></path>
    <path class="cls-1" d="M559.4,240.03V67.21h13.8v172.82h-13.8Z"></path>
    <path class="cls-1" d="M621.2,240.03V67.21h12.84l70.81,152.89,70.09-152.89h13.32v172.58h-13.56V99.01l-64.33,141.01h-11.28l-64.45-141.01v141.01h-13.44Z"></path>
    <path class="cls-1" d="M902.87,243.63c-17.2,0-31.64-3.82-43.32-11.46-11.68-7.64-20.48-18.22-26.4-31.74-5.92-13.52-8.88-29.12-8.88-46.8s2.96-33.28,8.88-46.8c5.92-13.52,14.72-24.1,26.4-31.74,11.68-7.64,26.12-11.46,43.32-11.46s31.62,3.82,43.26,11.46c11.64,7.64,20.42,18.22,26.34,31.74,5.92,13.52,8.88,29.12,8.88,46.8s-2.96,33.28-8.88,46.8c-5.92,13.52-14.7,24.11-26.34,31.74-11.64,7.64-26.06,11.46-43.26,11.46ZM902.87,230.07c14.16.08,25.96-3.14,35.41-9.66,9.44-6.52,16.52-15.54,21.24-27.06,4.72-11.52,7.08-24.76,7.08-39.72s-2.36-28.2-7.08-39.72c-4.72-11.52-11.8-20.52-21.24-27-9.44-6.48-21.24-9.72-35.41-9.72-14.16-.08-25.94,3.12-35.34,9.6-9.4,6.48-16.46,15.5-21.18,27.06-4.72,11.56-7.16,24.82-7.32,39.78-.16,14.96,2.14,28.19,6.9,39.67,4.76,11.48,11.9,20.48,21.42,27,9.52,6.52,21.36,9.78,35.52,9.78Z"></path>
    <path class="cls-1" d="M1055.77,240.03l-61.2-172.82h14.64l54.96,155.54,55.33-155.54h14.64l-61.21,172.82h-17.16Z"></path>
    <path class="cls-1" d="M1164.14,240.03V67.21h106.81v13.44h-93.01v65.65h78.61v13.44h-78.61v66.84h93.01v13.44h-106.81Z"></path>
  </g>
  <g>
    <path class="cls-1" d="M1297.96,240.02V67.22h72.96c1.68,0,3.94.06,6.78.18s5.38.38,7.62.78c10.32,1.6,18.78,5,25.38,10.2,6.6,5.2,11.46,11.74,14.58,19.62,3.12,7.88,4.68,16.66,4.68,26.34s-1.58,18.46-4.74,26.34c-3.16,7.88-8.04,14.42-14.64,19.62-6.6,5.2-15.02,8.6-25.26,10.2-2.24.32-4.8.56-7.68.72-2.88.16-5.12.24-6.72.24h-40.32v58.56h-32.64ZM1330.6,150.98h38.88c1.68,0,3.52-.08,5.52-.24,2-.16,3.84-.48,5.52-.96,4.4-1.2,7.8-3.22,10.2-6.06,2.4-2.84,4.06-6,4.98-9.48.92-3.48,1.38-6.78,1.38-9.9s-.46-6.42-1.38-9.9c-.92-3.48-2.58-6.64-4.98-9.48-2.4-2.84-5.8-4.86-10.2-6.06-1.68-.48-3.52-.8-5.52-.96-2-.16-3.84-.24-5.52-.24h-38.88v53.28Z"></path>
    <g>
      <path class="cls-1" d="M1465.96,240.02V67.22h72.96c1.68,0,3.94.06,6.78.18,2.84.12,5.38.38,7.62.78,10.32,1.6,18.78,5,25.38,10.2,6.6,5.2,11.46,11.74,14.58,19.62,3.12,7.88,4.68,16.66,4.68,26.34,0,14.48-3.6,26.86-10.8,37.14-7.2,10.28-18.48,16.62-33.84,19.02l-14.4.96h-40.32v58.56h-32.64ZM1498.6,150.98h38.88c1.68,0,3.52-.08,5.52-.24,2-.16,3.84-.48,5.52-.96,4.4-1.2,7.8-3.22,10.2-6.06,2.4-2.84,4.06-6,4.98-9.48.92-3.48,1.38-6.78,1.38-9.9s-.46-6.42-1.38-9.9c-.92-3.48-2.58-6.64-4.98-9.48-2.4-2.84-5.8-4.86-10.2-6.06-1.68-.48-3.52-.8-5.52-.96-2-.16-3.84-.24-5.52-.24h-38.88v53.28ZM1563.4,240.02l-34.08-70.32,33.6-6.48,37.44,76.8h-36.96Z"></path>
      <path class="cls-1" d="M1712.92,243.62c-17.28,0-32.18-3.76-44.7-11.28-12.52-7.52-22.16-18.04-28.92-31.56-6.76-13.52-10.14-29.24-10.14-47.16s3.38-33.64,10.14-47.16c6.76-13.52,16.4-24.04,28.92-31.56,12.52-7.52,27.42-11.28,44.7-11.28s32.18,3.76,44.7,11.28c12.52,7.52,22.16,18.04,28.92,31.56,6.76,13.52,10.14,29.24,10.14,47.16s-3.38,33.64-10.14,47.16c-6.76,13.52-16.4,24.04-28.92,31.56-12.52,7.52-27.42,11.28-44.7,11.28ZM1712.92,212.9c10.96.16,20.08-2.2,27.36-7.08,7.28-4.88,12.74-11.8,16.38-20.76,3.64-8.96,5.46-19.44,5.46-31.44s-1.82-22.4-5.46-31.2c-3.64-8.8-9.1-15.64-16.38-20.52-7.28-4.88-16.4-7.4-27.36-7.56-10.96-.16-20.08,2.2-27.36,7.08-7.28,4.88-12.74,11.8-16.38,20.76-3.64,8.96-5.46,19.44-5.46,31.44s1.82,22.4,5.46,31.2c3.64,8.8,9.1,15.64,16.38,20.52,7.28,4.88,16.4,7.4,27.36,7.56Z"></path>
    </g>
  </g>
  <path class="cls-1" d="M1810.57,92.28v-23.72h-9.08v-5.08h23.6v5.08h-9.08v23.72h-5.44Z"></path>
  <path class="cls-1" d="M1830.29,92.28v-28.8h4.88l9.52,19.12,9.52-19.12h4.88v28.8h-5.08v-17.2l-8.36,17.2h-1.92l-8.36-17.2v17.2h-5.08Z"></path>
</svg>
